<svg width="389" height="338" viewBox="0 0 389 338" fill="none" xmlns="http://www.w3.org/2000/svg">
<g filter="url(#filter0_dd_83_286)">
<path d="M212.38 71.1773V23C212.38 11.9543 221.334 3 232.38 3H362.675C373.721 3 382.675 11.9543 382.675 23V311C382.675 322.046 373.721 331 362.675 331H23C11.9543 331 3 322.046 3 311V111.177C3 100.132 11.9543 91.1773 23 91.1773H192.38C203.425 91.1773 212.38 82.2229 212.38 71.1773Z" fill="#EEEEEE"/>
<path d="M212.38 71.1773V23C212.38 11.9543 221.334 3 232.38 3H362.675C373.721 3 382.675 11.9543 382.675 23V311C382.675 322.046 373.721 331 362.675 331H23C11.9543 331 3 322.046 3 311V111.177C3 100.132 11.9543 91.1773 23 91.1773H192.38C203.425 91.1773 212.38 82.2229 212.38 71.1773Z" stroke="#57B9FF" stroke-width="0.4" stroke-linecap="round"/>
</g>
<defs>
<filter id="filter0_dd_83_286" x="0.799805" y="0.799805" width="388.075" height="336.4" filterUnits="userSpaceOnUse" color-interpolation-filters="sRGB">
<feFlood flood-opacity="0" result="BackgroundImageFix"/>
<feColorMatrix in="SourceAlpha" type="matrix" values="0 0 0 0 0 0 0 0 0 0 0 0 0 0 0 0 0 0 127 0" result="hardAlpha"/>
<feOffset dx="2" dy="2"/>
<feGaussianBlur stdDeviation="2"/>
<feComposite in2="hardAlpha" operator="out"/>
<feColorMatrix type="matrix" values="0 0 0 0 0 0 0 0 0 0 0 0 0 0 0 0 0 0 0.12 0"/>
<feBlend mode="normal" in2="BackgroundImageFix" result="effect1_dropShadow_83_286"/>
<feColorMatrix in="SourceAlpha" type="matrix" values="0 0 0 0 0 0 0 0 0 0 0 0 0 0 0 0 0 0 127 0" result="hardAlpha"/>
<feOffset dx="2" dy="2"/>
<feGaussianBlur stdDeviation="2"/>
<feComposite in2="hardAlpha" operator="out"/>
<feColorMatrix type="matrix" values="0 0 0 0 0 0 0 0 0 0 0 0 0 0 0 0 0 0 0.12 0"/>
<feBlend mode="normal" in2="effect1_dropShadow_83_286" result="effect2_dropShadow_83_286"/>
<feBlend mode="normal" in="SourceGraphic" in2="effect2_dropShadow_83_286" result="shape"/>
</filter>
</defs>
</svg>
