<svg width="279" height="186" viewBox="0 0 279 186" fill="none" xmlns="http://www.w3.org/2000/svg">
<path fill-rule="evenodd" clip-rule="evenodd" d="M141 43C159.778 43 175 27.7777 175 9C175 4.41519 178.319 0 182.903 0H269C274.523 0 279 4.47715 279 10V176C279 181.523 274.523 186 269 186H10C4.47715 186 0 181.523 0 176V10C0 4.47715 4.47715 0 10 0H99.0967C103.681 0 107 4.41519 107 9C107 27.7777 122.222 43 141 43Z" fill="url(#paint0_linear_107_1436)"/>
<defs>
<linearGradient id="paint0_linear_107_1436" x1="128" y1="93.0001" x2="397.771" y2="20.9726" gradientUnits="userSpaceOnUse">
<stop stop-color="#20ABA4"/>
<stop offset="1" stop-color="white"/>
</linearGradient>
</defs>
</svg>
